<svg width="120" height="104" viewBox="0 0 120 104" fill="none" xmlns="http://www.w3.org/2000/svg">
<rect width="120" height="104" rx="32" fill="#D3D3D3"/>
<path d="M59.9948 35.3359C57.8061 35.3359 55.6388 35.767 53.6167 36.6046C51.5946 37.4422 49.7573 38.6698 48.2097 40.2175C45.0841 43.3431 43.3281 47.5823 43.3281 52.0026C43.3281 59.3693 48.1115 65.6193 54.7281 67.8359C55.5615 67.9693 55.8281 67.4526 55.8281 67.0026V64.1859C51.2115 65.1859 50.2281 61.9526 50.2281 61.9526C49.4615 60.0193 48.3781 59.5026 48.3781 59.5026C46.8615 58.4693 48.4948 58.5026 48.4948 58.5026C50.1615 58.6193 51.0448 60.2193 51.0448 60.2193C52.4948 62.7526 54.9448 62.0026 55.8948 61.6026C56.0448 60.5193 56.4781 59.7859 56.9448 59.3693C53.2448 58.9526 49.3615 57.5193 49.3615 51.1693C49.3615 49.3193 49.9948 47.8359 51.0781 46.6526C50.9115 46.2359 50.3281 44.5026 51.2448 42.2526C51.2448 42.2526 52.6448 41.8026 55.8281 43.9526C57.1448 43.5859 58.5781 43.4026 59.9948 43.4026C61.4115 43.4026 62.8448 43.5859 64.1615 43.9526C67.3448 41.8026 68.7448 42.2526 68.7448 42.2526C69.6615 44.5026 69.0781 46.2359 68.9115 46.6526C69.9948 47.8359 70.6281 49.3193 70.6281 51.1693C70.6281 57.5359 66.7281 58.9359 63.0115 59.3526C63.6115 59.8693 64.1615 60.8859 64.1615 62.4359V67.0026C64.1615 67.4526 64.4281 67.9859 65.2781 67.8359C71.8948 65.6026 76.6615 59.3693 76.6615 52.0026C76.6615 49.8139 76.2304 47.6466 75.3928 45.6245C74.5552 43.6025 73.3275 41.7651 71.7799 40.2175C70.2323 38.6698 68.3949 37.4422 66.3728 36.6046C64.3508 35.767 62.1835 35.3359 59.9948 35.3359Z" fill="black"/>
</svg>
