<svg width="120" height="104" viewBox="0 0 120 104" fill="none" xmlns="http://www.w3.org/2000/svg">
<rect width="120" height="104" rx="32" fill="#0A66C2"/>
<path d="M71.6667 37C72.5507 37 73.3986 37.3512 74.0237 37.9763C74.6488 38.6014 75 39.4493 75 40.3333V63.6667C75 64.5507 74.6488 65.3986 74.0237 66.0237C73.3986 66.6488 72.5507 67 71.6667 67H48.3333C47.4493 67 46.6014 66.6488 45.9763 66.0237C45.3512 65.3986 45 64.5507 45 63.6667V40.3333C45 39.4493 45.3512 38.6014 45.9763 37.9763C46.6014 37.3512 47.4493 37 48.3333 37H71.6667ZM70.8333 62.8333V54C70.8333 52.559 70.2609 51.177 69.2419 50.1581C68.223 49.1391 66.841 48.5667 65.4 48.5667C63.9833 48.5667 62.3333 49.4333 61.5333 50.7333V48.8833H56.8833V62.8333H61.5333V54.6167C61.5333 53.3333 62.5667 52.2833 63.85 52.2833C64.4688 52.2833 65.0623 52.5292 65.4999 52.9668C65.9375 53.4043 66.1833 53.9978 66.1833 54.6167V62.8333H70.8333ZM51.4667 46.2667C52.2093 46.2667 52.9215 45.9717 53.4466 45.4466C53.9717 44.9215 54.2667 44.2093 54.2667 43.4667C54.2667 41.9167 53.0167 40.65 51.4667 40.65C50.7196 40.65 50.0032 40.9468 49.475 41.475C48.9468 42.0032 48.65 42.7196 48.65 43.4667C48.65 45.0167 49.9167 46.2667 51.4667 46.2667ZM53.7833 62.8333V48.8833H49.1667V62.8333H53.7833Z" fill="white"/>
</svg>
